<svg width="200" height="80" viewBox="0 0 200 80" xmlns="http://www.w3.org/2000/svg">
  <!-- T -->
  <g transform="translate(10, 15)">
    <rect x="0" y="0" width="35" height="50" rx="8" ry="8" fill="#FFB366" stroke="#2563EB" stroke-width="3"/>
    <rect x="8" y="15" width="19" height="35" rx="8" ry="8" fill="#FFB366" stroke="#2563EB" stroke-width="3"/>
    <rect x="8" y="8" width="19" height="12" rx="4" ry="4" fill="#E6A756" stroke="#2563EB" stroke-width="2"/>
    <rect x="12" y="8" width="11" height="12" rx="4" ry="4" fill="#E6A756" stroke="#2563EB" stroke-width="2"/>
  </g>
  
  <!-- O -->
  <g transform="translate(50, 15)">
    <circle cx="20" cy="25" r="22" fill="#7DD3C0" stroke="#2563EB" stroke-width="3"/>
    <circle cx="20" cy="25" r="12" fill="#FFFFFF" stroke="#2563EB" stroke-width="2"/>
  </g>
  
  <!-- Y -->
  <g transform="translate(95, 15)">
    <path d="M5 10 L15 25 L25 10 L32 15 L20 32 L20 50 L12 50 L12 32 L0 15 Z" fill="#A4C8FF" stroke="#2563EB" stroke-width="3"/>
  </g>
  
  <!-- X -->
  <g transform="translate(140, 15)">
    <path d="M8 8 L22 22 L36 8 L42 14 L28 28 L42 42 L36 48 L22 34 L8 48 L2 42 L16 28 L2 14 Z" fill="#E6A8D9" stroke="#2563EB" stroke-width="3"/>
    <!-- Exchange arrows -->
    <path d="M15 20 L25 15 L23 18 M25 15 L20 12" fill="none" stroke="#2563EB" stroke-width="2"/>
    <path d="M25 36 L15 41 L17 38 M15 41 L20 44" fill="none" stroke="#2563EB" stroke-width="2"/>
  </g>
</svg>